<svg width="124" height="31" viewBox="0 0 124 31" fill="none" xmlns="http://www.w3.org/2000/svg">
<rect x="0.25" y="0.25" width="123.5" height="30.5" fill="#E4CDA7" stroke="black" stroke-width="0.5"/>
<path d="M29.67 16.646L34.98 23H32.802L28.536 17.69L27.348 18.968V23H25.8V10.58H27.348V17.186L33.486 10.58H35.304L29.67 16.646ZM45.0308 21.74V23H36.7688V10.58H38.3168V21.74H45.0308ZM48.6703 23H47.1223V10.58H48.6703V23ZM55.7384 16.646L61.0484 23H58.8704L54.6044 17.69L53.4164 18.968V23H51.8684V10.58H53.4164V17.186L59.5544 10.58H61.3724L55.7384 16.646ZM76.6579 10.58V23H75.1099V17.564H68.2699V23H66.7219V10.58H68.2699V16.268H75.1099V10.58H76.6579ZM88.1323 21.74V23H79.8703V10.58H87.9523V11.84H81.4183V16.16H87.4123V17.42H81.4183V21.74H88.1323ZM98.6068 19.742C98.7508 21.362 98.9308 22.334 99.4348 23H97.7248C97.3828 22.208 97.2208 21.416 97.0588 19.886C96.9148 18.608 96.4288 17.762 95.2048 17.672C94.9168 17.654 94.6108 17.654 94.3228 17.654H91.9828V23H90.4348V10.58H94.5028C95.1328 10.58 95.5648 10.58 96.1228 10.652C97.9228 10.886 99.2188 11.876 99.2188 13.964C99.2188 15.602 98.1568 16.538 97.0048 16.898C98.0128 17.366 98.4988 18.5 98.6068 19.742ZM91.9828 16.394H94.3588C94.9168 16.394 95.2228 16.394 95.5648 16.358C96.7168 16.25 97.5628 15.512 97.5628 14.108C97.5628 12.722 96.8968 12.092 95.7448 11.912C95.4028 11.858 95.0608 11.84 94.5028 11.84H91.9828V16.394Z" fill="black"/>
</svg>
