<svg width="750" height="490" viewBox="0 0 750 490" fill="none" xmlns="http://www.w3.org/2000/svg">
<path d="M0.5 0.5H749.5V489.5H0.5V0.5Z" fill="#EBE1D9" stroke="black"/>
<path d="M126.336 235.88C126.336 239.08 125.008 241.544 122.352 243.272C119.696 244.968 115.888 245.816 110.928 245.816C106.32 245.816 102.816 245.128 100.416 243.752C98.048 242.344 96.864 240.312 96.864 237.656C96.864 236.024 97.456 234.696 98.64 233.672C99.824 232.616 101.344 232.088 103.2 232.088C105.344 232.088 107.04 232.568 108.288 233.528C109.568 234.456 110.208 235.72 110.208 237.32C110.208 238.536 109.792 239.496 108.96 240.2C108.128 240.904 106.96 241.288 105.456 241.352C105.264 241.544 105.168 241.752 105.168 241.976C105.168 242.2 105.264 242.376 105.456 242.504C105.68 242.632 105.952 242.696 106.272 242.696C107.872 242.696 109.2 242.184 110.256 241.16C111.344 240.136 111.888 238.856 111.888 237.32C111.888 236.072 111.632 235.048 111.12 234.248C110.608 233.416 109.776 232.68 108.624 232.04C107.504 231.4 105.968 230.776 104.016 230.168C101.808 229.496 100.144 228.488 99.024 227.144C97.904 225.8 97.344 224.152 97.344 222.2C97.344 220.28 97.936 218.584 99.12 217.112C100.336 215.608 102.064 214.424 104.304 213.56C106.576 212.696 109.216 212.264 112.224 212.264C116.448 212.264 119.744 212.984 122.112 214.424C124.512 215.864 125.712 217.864 125.712 220.424C125.712 222.056 125.088 223.4 123.84 224.456C122.624 225.48 121.04 225.992 119.088 225.992C117.072 225.992 115.44 225.512 114.192 224.552C112.976 223.592 112.368 222.328 112.368 220.76C112.368 219.544 112.784 218.584 113.616 217.88C114.448 217.176 115.616 216.792 117.12 216.728C117.312 216.536 117.408 216.328 117.408 216.104C117.408 215.88 117.296 215.704 117.072 215.576C116.88 215.448 116.624 215.384 116.304 215.384C115.28 215.384 114.336 215.624 113.472 216.104C112.64 216.552 111.968 217.192 111.456 218.024C110.944 218.824 110.688 219.736 110.688 220.76C110.688 222.52 111.28 223.944 112.464 225.032C113.648 226.088 115.68 227.016 118.56 227.816C121.216 228.552 123.168 229.576 124.416 230.888C125.696 232.2 126.336 233.864 126.336 235.88ZM155.409 213.08C155.985 213.08 156.385 213.208 156.609 213.464C156.865 213.72 156.993 214.152 156.993 214.76V220.472C156.993 222.488 156.561 223.992 155.697 224.984C154.833 225.944 153.505 226.424 151.713 226.424H145.809C145.201 226.424 144.769 226.296 144.513 226.04C144.257 225.784 144.129 225.352 144.129 224.744V216.44C144.129 215.736 143.857 215.384 143.313 215.384C142.929 215.384 142.641 215.512 142.449 215.768V227.864H151.569C151.953 227.864 152.145 228.04 152.145 228.392V229.64C152.145 229.96 151.953 230.12 151.569 230.12H142.449V242.216C142.641 242.472 142.929 242.6 143.313 242.6C143.857 242.6 144.129 242.248 144.129 241.544V233.336C144.129 232.728 144.257 232.296 144.513 232.04C144.769 231.784 145.201 231.656 145.809 231.656H151.713C153.505 231.656 154.833 232.152 155.697 233.144C156.561 234.104 156.993 235.592 156.993 237.608V243.32C156.993 243.928 156.865 244.36 156.609 244.616C156.385 244.872 155.985 245 155.409 245H131.169C130.593 245 130.177 244.872 129.921 244.616C129.697 244.36 129.585 243.928 129.585 243.32V218.552C129.585 217.752 129.521 217.176 129.393 216.824C129.265 216.44 129.041 216.104 128.721 215.816C128.401 215.496 127.857 215.08 127.089 214.568C126.929 214.472 126.849 214.328 126.849 214.136V213.56C126.849 213.24 127.041 213.08 127.425 213.08H155.409ZM172.787 213.08C173.363 213.08 173.763 213.208 173.987 213.464C174.243 213.72 174.371 214.152 174.371 214.76V242.216C174.563 242.472 174.851 242.6 175.235 242.6C175.779 242.6 176.051 242.248 176.051 241.544V232.376C176.051 231.768 176.179 231.336 176.435 231.08C176.691 230.824 177.123 230.696 177.731 230.696H183.635C185.427 230.696 186.755 231.192 187.619 232.184C188.483 233.144 188.915 234.632 188.915 236.648V243.32C188.915 243.928 188.787 244.36 188.531 244.616C188.307 244.872 187.907 245 187.331 245H163.091C162.515 245 162.099 244.872 161.843 244.616C161.619 244.36 161.507 243.928 161.507 243.32V218.552C161.507 217.752 161.443 217.176 161.315 216.824C161.187 216.44 160.963 216.104 160.643 215.816C160.323 215.496 159.779 215.08 159.011 214.568C158.851 214.472 158.771 214.328 158.771 214.136V213.56C158.771 213.24 158.963 213.08 159.347 213.08H172.787ZM193.938 213.08C196.146 213.08 197.842 213.56 199.026 214.52C200.21 215.48 201.09 217.08 201.666 219.32L206.898 239.24C207.058 239.4 207.298 239.48 207.618 239.48C207.81 239.48 207.986 239.416 208.146 239.288C208.306 239.128 208.386 238.936 208.386 238.712C208.386 238.456 208.322 238.12 208.194 237.704L203.298 218.6C203.138 218.024 202.914 217.4 202.626 216.728C202.338 216.056 202.05 215.528 201.762 215.144C201.474 214.76 201.298 214.504 201.234 214.376C201.17 214.248 201.138 214.088 201.138 213.896V213.56C201.138 213.24 201.346 213.08 201.762 213.08H217.266C217.906 213.08 218.386 213.24 218.706 213.56C219.058 213.848 219.234 214.264 219.234 214.808C219.234 215.992 218.274 219.448 216.354 225.176C214.466 230.872 212.354 236.6 210.018 242.36C209.666 243.288 209.154 243.96 208.482 244.376C207.842 244.792 206.994 245 205.938 245H198.978C197.922 245 197.058 244.792 196.386 244.376C195.746 243.96 195.25 243.288 194.898 242.36L185.298 217.064C185.106 216.552 184.834 216.136 184.482 215.816C184.162 215.464 183.602 215.048 182.802 214.568C182.642 214.472 182.562 214.328 182.562 214.136V213.56C182.562 213.24 182.754 213.08 183.138 213.08H193.938ZM231.298 213.08C233.506 213.08 235.202 213.56 236.386 214.52C237.57 215.48 238.45 217.08 239.026 219.32L244.258 239.24C244.418 239.4 244.658 239.48 244.978 239.48C245.17 239.48 245.346 239.416 245.506 239.288C245.666 239.128 245.746 238.936 245.746 238.712C245.746 238.456 245.682 238.12 245.554 237.704L240.658 218.6C240.498 218.024 240.274 217.4 239.986 216.728C239.698 216.056 239.41 215.528 239.122 215.144C238.834 214.76 238.658 214.504 238.594 214.376C238.53 214.248 238.498 214.088 238.498 213.896V213.56C238.498 213.24 238.706 213.08 239.122 213.08H254.626C255.266 213.08 255.746 213.24 256.066 213.56C256.418 213.848 256.594 214.264 256.594 214.808C256.594 215.992 255.634 219.448 253.714 225.176C251.826 230.872 249.714 236.6 247.378 242.36C247.026 243.288 246.514 243.96 245.842 244.376C245.202 244.792 244.354 245 243.298 245H236.338C235.282 245 234.418 244.792 233.746 244.376C233.106 243.96 232.61 243.288 232.258 242.36L222.658 217.064C222.466 216.552 222.194 216.136 221.842 215.816C221.522 215.464 220.962 215.048 220.162 214.568C220.002 214.472 219.922 214.328 219.922 214.136V213.56C219.922 213.24 220.114 213.08 220.498 213.08H231.298ZM268.268 236.888H266.492L267.884 242.264C268.076 243 268.172 243.512 268.172 243.8C268.172 244.6 267.676 245 266.684 245H254.156C253.516 245 253.02 244.856 252.668 244.568C252.348 244.248 252.188 243.816 252.188 243.272C252.188 242.536 252.924 240.296 254.396 236.552C255.868 232.808 258.364 226.84 261.884 218.648C262.076 218.2 262.172 217.8 262.172 217.448C262.172 216.904 262.028 216.44 261.74 216.056C261.484 215.672 260.988 215.24 260.252 214.76C259.932 214.568 259.772 214.36 259.772 214.136V213.56C259.772 213.24 259.964 213.08 260.348 213.08H271.484C272.54 213.08 273.388 213.288 274.028 213.704C274.7 214.12 275.212 214.792 275.564 215.72L284.828 240.104C285.436 241.672 285.74 242.792 285.74 243.464C285.74 244.488 285.212 245 284.156 245H272.108C271.436 245 270.94 244.856 270.62 244.568C270.332 244.28 270.076 243.704 269.852 242.84L268.268 236.888ZM265.916 234.632H267.692L264.332 221.72C264.172 221.56 263.964 221.48 263.708 221.48C263.452 221.48 263.244 221.56 263.084 221.72C262.924 221.848 262.844 222.024 262.844 222.248C262.844 222.376 262.86 222.52 262.892 222.68C262.924 222.84 262.972 223.032 263.036 223.256L265.916 234.632ZM299.397 213.08C299.973 213.08 300.373 213.208 300.597 213.464C300.853 213.72 300.981 214.152 300.981 214.76V242.216C301.173 242.472 301.461 242.6 301.845 242.6C302.389 242.6 302.661 242.248 302.661 241.544V232.376C302.661 231.768 302.789 231.336 303.045 231.08C303.301 230.824 303.733 230.696 304.341 230.696H310.245C312.037 230.696 313.365 231.192 314.229 232.184C315.093 233.144 315.525 234.632 315.525 236.648V243.32C315.525 243.928 315.397 244.36 315.141 244.616C314.917 244.872 314.517 245 313.941 245H289.701C289.125 245 288.709 244.872 288.453 244.616C288.229 244.36 288.117 243.928 288.117 243.32V218.552C288.117 217.752 288.053 217.176 287.925 216.824C287.797 216.44 287.573 216.104 287.253 215.816C286.933 215.496 286.389 215.08 285.621 214.568C285.461 214.472 285.381 214.328 285.381 214.136V213.56C285.381 213.24 285.573 213.08 285.957 213.08H299.397ZM339.022 245C338.062 245.32 337.182 245.528 336.382 245.624C335.614 245.752 334.702 245.816 333.646 245.816C328.334 245.816 324.238 244.344 321.358 241.4C318.478 238.424 317.038 234.2 317.038 228.728C317.038 225.496 317.726 222.648 319.102 220.184C320.478 217.688 322.478 215.752 325.102 214.376C327.726 212.968 330.83 212.264 334.414 212.264C336.782 212.264 338.926 212.664 340.846 213.464C342.766 214.232 344.302 215.336 345.454 216.776C346.606 218.216 347.182 219.864 347.182 221.72C347.182 223.864 346.414 225.592 344.878 226.904C343.342 228.184 341.31 228.824 338.782 228.824C337.246 228.824 335.838 228.536 334.558 227.96C333.31 227.352 332.302 226.52 331.534 225.464C330.798 224.376 330.43 223.144 330.43 221.768C330.43 220.04 331.022 218.664 332.206 217.64C333.39 216.616 334.99 216.104 337.006 216.104C337.198 215.912 337.294 215.704 337.294 215.48C337.294 215.224 337.182 215.032 336.958 214.904C336.734 214.744 336.446 214.664 336.094 214.664C334.814 214.664 333.614 214.968 332.494 215.576C331.406 216.184 330.526 217.032 329.854 218.12C329.182 219.208 328.846 220.44 328.846 221.816C328.846 223.224 329.102 224.456 329.614 225.512C330.158 226.536 331.038 227.544 332.254 228.536C332.542 228.76 332.75 229.016 332.878 229.304C333.006 229.56 333.07 229.912 333.07 230.36V242.072C333.07 242.936 333.358 243.368 333.934 243.368C334.51 243.368 334.798 242.936 334.798 242.072V231.656C334.798 231.048 334.91 230.616 335.134 230.36C335.39 230.104 335.806 229.976 336.382 229.976H349.822C350.206 229.976 350.398 230.136 350.398 230.456V231.032C350.398 231.16 350.366 231.272 350.302 231.368C350.27 231.432 350.142 231.528 349.918 231.656C348.99 232.168 348.382 232.664 348.094 233.144C347.806 233.624 347.662 234.376 347.662 235.4V243.32C347.662 243.928 347.534 244.36 347.278 244.616C347.054 244.872 346.654 245 346.078 245H339.022ZM361.296 215.768C361.104 215.512 360.832 215.384 360.48 215.384C359.936 215.384 359.664 215.736 359.664 216.44V228.104C359.664 228.712 359.536 229.144 359.28 229.4C359.024 229.656 358.592 229.784 357.984 229.784H354.72C352.928 229.784 351.6 229.304 350.736 228.344C349.872 227.352 349.44 225.848 349.44 223.832V214.76C349.44 214.152 349.552 213.72 349.776 213.464C350.032 213.208 350.448 213.08 351.024 213.08H384.432C385.008 213.08 385.408 213.208 385.632 213.464C385.888 213.72 386.016 214.152 386.016 214.76V223.832C386.016 225.848 385.584 227.352 384.72 228.344C383.856 229.304 382.528 229.784 380.736 229.784H377.472C376.864 229.784 376.432 229.656 376.176 229.4C375.92 229.144 375.792 228.712 375.792 228.104V216.44C375.792 215.736 375.52 215.384 374.976 215.384C374.624 215.384 374.352 215.512 374.16 215.768V243.32C374.16 243.928 374.032 244.36 373.776 244.616C373.552 244.872 373.152 245 372.576 245H362.88C362.304 245 361.888 244.872 361.632 244.616C361.408 244.36 361.296 243.928 361.296 243.32V215.768ZM433.632 239.288C433.824 239.48 434.064 239.576 434.352 239.576C434.896 239.576 435.168 239.272 435.168 238.664C435.168 238.504 435.152 238.344 435.12 238.184C435.088 237.992 435.056 237.832 435.024 237.704L431.376 218.6C431.056 217 430.608 215.848 430.032 215.144C429.776 214.792 429.6 214.552 429.504 214.424C429.44 214.264 429.408 214.088 429.408 213.896V213.56C429.408 213.24 429.616 213.08 430.032 213.08H444.144C444.784 213.08 445.264 213.24 445.584 213.56C445.936 213.848 446.112 214.264 446.112 214.808C446.112 215.992 445.152 219.432 443.232 225.128C441.344 230.792 439.216 236.536 436.848 242.36C436.496 243.288 435.984 243.96 435.312 244.376C434.672 244.792 433.824 245 432.768 245H427.008C425.952 245 425.088 244.792 424.416 244.376C423.776 243.96 423.28 243.288 422.928 242.36C422.224 244.12 420.8 245 418.656 245H412.512C410.368 245 409.008 244.12 408.432 242.36L400.08 217.064C399.92 216.584 399.664 216.184 399.312 215.864C398.992 215.512 398.416 215.08 397.584 214.568C397.424 214.472 397.344 214.328 397.344 214.136V213.56C397.344 213.24 397.536 213.08 397.92 213.08H407.04C409.248 213.08 410.944 213.56 412.128 214.52C413.312 215.48 414.192 217.08 414.768 219.32L419.712 239.24C419.904 239.4 420.128 239.48 420.384 239.48C420.64 239.48 420.848 239.4 421.008 239.24C421.168 239.08 421.248 238.872 421.248 238.616C421.248 238.456 421.232 238.296 421.2 238.136C421.168 237.944 421.12 237.736 421.056 237.512L416.352 218.6C416.096 217.608 415.856 216.872 415.632 216.392C415.44 215.88 415.216 215.464 414.96 215.144C414.704 214.792 414.528 214.552 414.432 214.424C414.368 214.264 414.336 214.088 414.336 213.896V213.56C414.336 213.24 414.544 213.08 414.96 213.08H422.016C424.288 213.08 426.032 213.576 427.248 214.568C428.496 215.56 429.328 217.144 429.744 219.32L433.632 239.288ZM476.269 213.08C476.845 213.08 477.245 213.208 477.469 213.464C477.725 213.72 477.853 214.152 477.853 214.76V220.472C477.853 222.488 477.421 223.992 476.557 224.984C475.693 225.944 474.365 226.424 472.573 226.424H466.669C466.061 226.424 465.629 226.296 465.373 226.04C465.117 225.784 464.989 225.352 464.989 224.744V216.44C464.989 215.736 464.717 215.384 464.173 215.384C463.789 215.384 463.501 215.512 463.309 215.768V227.864H472.429C472.813 227.864 473.005 228.04 473.005 228.392V229.64C473.005 229.96 472.813 230.12 472.429 230.12H463.309V242.216C463.501 242.472 463.789 242.6 464.173 242.6C464.717 242.6 464.989 242.248 464.989 241.544V233.336C464.989 232.728 465.117 232.296 465.373 232.04C465.629 231.784 466.061 231.656 466.669 231.656H472.573C474.365 231.656 475.693 232.152 476.557 233.144C477.421 234.104 477.853 235.592 477.853 237.608V243.32C477.853 243.928 477.725 244.36 477.469 244.616C477.245 244.872 476.845 245 476.269 245H452.029C451.453 245 451.037 244.872 450.781 244.616C450.557 244.36 450.445 243.928 450.445 243.32V218.552C450.445 217.752 450.381 217.176 450.253 216.824C450.125 216.44 449.901 216.104 449.581 215.816C449.261 215.496 448.717 215.08 447.949 214.568C447.789 214.472 447.709 214.328 447.709 214.136V213.56C447.709 213.24 447.901 213.08 448.285 213.08H476.269ZM495.231 226.28H495.855C496.655 226.28 497.055 225.88 497.055 225.08V216.584C497.055 216.232 496.975 215.944 496.815 215.72C496.655 215.496 496.431 215.384 496.143 215.384C495.727 215.384 495.423 215.512 495.231 215.768V226.28ZM495.231 228.44V242.312C495.423 242.568 495.727 242.696 496.143 242.696C496.431 242.696 496.655 242.584 496.815 242.36C496.975 242.136 497.055 241.848 497.055 241.496V229.64C497.055 228.84 496.607 228.44 495.711 228.44H495.231ZM498.591 213.08C502.303 213.08 505.103 213.688 506.991 214.904C508.911 216.12 509.871 217.896 509.871 220.232C509.871 221.416 509.615 222.488 509.103 223.448C508.591 224.376 507.839 225.176 506.847 225.848C505.855 226.488 504.639 226.952 503.199 227.24C505.919 227.56 507.999 228.392 509.439 229.736C510.879 231.08 511.599 232.888 511.599 235.16C511.599 238.168 510.415 240.568 508.047 242.36C505.679 244.12 502.495 245 498.495 245H483.951C483.375 245 482.959 244.872 482.703 244.616C482.479 244.36 482.367 243.928 482.367 243.32V218.552C482.367 217.752 482.303 217.176 482.175 216.824C482.047 216.44 481.823 216.104 481.503 215.816C481.183 215.496 480.639 215.08 479.871 214.568C479.711 214.472 479.631 214.328 479.631 214.136V213.56C479.631 213.24 479.823 213.08 480.207 213.08H498.591ZM542.117 235.88C542.117 239.08 540.789 241.544 538.133 243.272C535.477 244.968 531.669 245.816 526.709 245.816C522.101 245.816 518.597 245.128 516.197 243.752C513.829 242.344 512.645 240.312 512.645 237.656C512.645 236.024 513.237 234.696 514.421 233.672C515.605 232.616 517.125 232.088 518.981 232.088C521.125 232.088 522.821 232.568 524.069 233.528C525.349 234.456 525.989 235.72 525.989 237.32C525.989 238.536 525.573 239.496 524.741 240.2C523.909 240.904 522.741 241.288 521.237 241.352C521.045 241.544 520.949 241.752 520.949 241.976C520.949 242.2 521.045 242.376 521.237 242.504C521.461 242.632 521.733 242.696 522.053 242.696C523.653 242.696 524.981 242.184 526.037 241.16C527.125 240.136 527.669 238.856 527.669 237.32C527.669 236.072 527.413 235.048 526.901 234.248C526.389 233.416 525.557 232.68 524.405 232.04C523.285 231.4 521.749 230.776 519.797 230.168C517.589 229.496 515.925 228.488 514.805 227.144C513.685 225.8 513.125 224.152 513.125 222.2C513.125 220.28 513.717 218.584 514.901 217.112C516.117 215.608 517.845 214.424 520.085 213.56C522.357 212.696 524.997 212.264 528.005 212.264C532.229 212.264 535.525 212.984 537.893 214.424C540.293 215.864 541.493 217.864 541.493 220.424C541.493 222.056 540.869 223.4 539.621 224.456C538.405 225.48 536.821 225.992 534.869 225.992C532.853 225.992 531.221 225.512 529.973 224.552C528.757 223.592 528.149 222.328 528.149 220.76C528.149 219.544 528.565 218.584 529.397 217.88C530.229 217.176 531.397 216.792 532.901 216.728C533.093 216.536 533.189 216.328 533.189 216.104C533.189 215.88 533.077 215.704 532.853 215.576C532.661 215.448 532.405 215.384 532.085 215.384C531.061 215.384 530.117 215.624 529.253 216.104C528.421 216.552 527.749 217.192 527.237 218.024C526.725 218.824 526.469 219.736 526.469 220.76C526.469 222.52 527.061 223.944 528.245 225.032C529.429 226.088 531.461 227.016 534.341 227.816C536.997 228.552 538.949 229.576 540.197 230.888C541.477 232.2 542.117 233.864 542.117 235.88ZM558.231 243.32C558.231 243.928 558.103 244.36 557.847 244.616C557.623 244.872 557.223 245 556.647 245H546.951C546.375 245 545.959 244.872 545.703 244.616C545.479 244.36 545.367 243.928 545.367 243.32V218.552C545.367 217.752 545.303 217.176 545.175 216.824C545.047 216.44 544.823 216.104 544.503 215.816C544.183 215.496 543.639 215.08 542.871 214.568C542.711 214.472 542.631 214.328 542.631 214.136V213.56C542.631 213.24 542.823 213.08 543.207 213.08H556.647C557.223 213.08 557.623 213.208 557.847 213.464C558.103 213.72 558.231 214.152 558.231 214.76V243.32ZM573.921 215.768C573.729 215.512 573.457 215.384 573.105 215.384C572.561 215.384 572.289 215.736 572.289 216.44V228.104C572.289 228.712 572.161 229.144 571.905 229.4C571.649 229.656 571.217 229.784 570.609 229.784H567.345C565.553 229.784 564.225 229.304 563.361 228.344C562.497 227.352 562.065 225.848 562.065 223.832V214.76C562.065 214.152 562.177 213.72 562.401 213.464C562.657 213.208 563.073 213.08 563.649 213.08H597.057C597.633 213.08 598.033 213.208 598.257 213.464C598.513 213.72 598.641 214.152 598.641 214.76V223.832C598.641 225.848 598.209 227.352 597.345 228.344C596.481 229.304 595.153 229.784 593.361 229.784H590.097C589.489 229.784 589.057 229.656 588.801 229.4C588.545 229.144 588.417 228.712 588.417 228.104V216.44C588.417 215.736 588.145 215.384 587.601 215.384C587.249 215.384 586.977 215.512 586.785 215.768V243.32C586.785 243.928 586.657 244.36 586.401 244.616C586.177 244.872 585.777 245 585.201 245H575.505C574.929 245 574.513 244.872 574.257 244.616C574.033 244.36 573.921 243.928 573.921 243.32V215.768ZM628.894 213.08C629.47 213.08 629.87 213.208 630.094 213.464C630.35 213.72 630.478 214.152 630.478 214.76V220.472C630.478 222.488 630.046 223.992 629.182 224.984C628.318 225.944 626.99 226.424 625.198 226.424H619.294C618.686 226.424 618.254 226.296 617.998 226.04C617.742 225.784 617.614 225.352 617.614 224.744V216.44C617.614 215.736 617.342 215.384 616.798 215.384C616.414 215.384 616.126 215.512 615.934 215.768V227.864H625.054C625.438 227.864 625.63 228.04 625.63 228.392V229.64C625.63 229.96 625.438 230.12 625.054 230.12H615.934V242.216C616.126 242.472 616.414 242.6 616.798 242.6C617.342 242.6 617.614 242.248 617.614 241.544V233.336C617.614 232.728 617.742 232.296 617.998 232.04C618.254 231.784 618.686 231.656 619.294 231.656H625.198C626.99 231.656 628.318 232.152 629.182 233.144C630.046 234.104 630.478 235.592 630.478 237.608V243.32C630.478 243.928 630.35 244.36 630.094 244.616C629.87 244.872 629.47 245 628.894 245H604.654C604.078 245 603.662 244.872 603.406 244.616C603.182 244.36 603.07 243.928 603.07 243.32V218.552C603.07 217.752 603.006 217.176 602.878 216.824C602.75 216.44 602.526 216.104 602.206 215.816C601.886 215.496 601.342 215.08 600.574 214.568C600.414 214.472 600.334 214.328 600.334 214.136V213.56C600.334 213.24 600.526 213.08 600.91 213.08H628.894Z" fill="#748F8C"/>
</svg>
