<svg width="750" height="490" viewBox="0 0 750 490" fill="none" xmlns="http://www.w3.org/2000/svg">
<path d="M0.5 0.5H749.5V489.5H0.5V0.5Z" fill="#EBE1D9" stroke="black"/>
<path d="M126.336 235.88C126.336 239.08 125.008 241.544 122.352 243.272C119.696 244.968 115.888 245.816 110.928 245.816C106.32 245.816 102.816 245.128 100.416 243.752C98.048 242.344 96.864 240.312 96.864 237.656C96.864 236.024 97.456 234.696 98.64 233.672C99.824 232.616 101.344 232.088 103.2 232.088C105.344 232.088 107.04 232.568 108.288 233.528C109.568 234.456 110.208 235.72 110.208 237.32C110.208 238.536 109.792 239.496 108.96 240.2C108.128 240.904 106.96 241.288 105.456 241.352C105.264 241.544 105.168 241.752 105.168 241.976C105.168 242.2 105.264 242.376 105.456 242.504C105.68 242.632 105.952 242.696 106.272 242.696C107.872 242.696 109.2 242.184 110.256 241.16C111.344 240.136 111.888 238.856 111.888 237.32C111.888 236.072 111.632 235.048 111.12 234.248C110.608 233.416 109.776 232.68 108.624 232.04C107.504 231.4 105.968 230.776 104.016 230.168C101.808 229.496 100.144 228.488 99.024 227.144C97.904 225.8 97.344 224.152 97.344 222.2C97.344 220.28 97.936 218.584 99.12 217.112C100.336 215.608 102.064 214.424 104.304 213.56C106.576 212.696 109.216 212.264 112.224 212.264C116.448 212.264 119.744 212.984 122.112 214.424C124.512 215.864 125.712 217.864 125.712 220.424C125.712 222.056 125.088 223.4 123.84 224.456C122.624 225.48 121.04 225.992 119.088 225.992C117.072 225.992 115.44 225.512 114.192 224.552C112.976 223.592 112.368 222.328 112.368 220.76C112.368 219.544 112.784 218.584 113.616 217.88C114.448 217.176 115.616 216.792 117.12 216.728C117.312 216.536 117.408 216.328 117.408 216.104C117.408 215.88 117.296 215.704 117.072 215.576C116.88 215.448 116.624 215.384 116.304 215.384C115.28 215.384 114.336 215.624 113.472 216.104C112.64 216.552 111.968 217.192 111.456 218.024C110.944 218.824 110.688 219.736 110.688 220.76C110.688 222.52 111.28 223.944 112.464 225.032C113.648 226.088 115.68 227.016 118.56 227.816C121.216 228.552 123.168 229.576 124.416 230.888C125.696 232.2 126.336 233.864 126.336 235.88ZM140.609 215.768C140.417 215.512 140.145 215.384 139.793 215.384C139.249 215.384 138.977 215.736 138.977 216.44V228.104C138.977 228.712 138.849 229.144 138.593 229.4C138.337 229.656 137.905 229.784 137.297 229.784H134.033C132.241 229.784 130.913 229.304 130.049 228.344C129.185 227.352 128.753 225.848 128.753 223.832V214.76C128.753 214.152 128.865 213.72 129.089 213.464C129.345 213.208 129.761 213.08 130.337 213.08H163.745C164.321 213.08 164.721 213.208 164.945 213.464C165.201 213.72 165.329 214.152 165.329 214.76V223.832C165.329 225.848 164.897 227.352 164.033 228.344C163.169 229.304 161.841 229.784 160.049 229.784H156.785C156.177 229.784 155.745 229.656 155.489 229.4C155.233 229.144 155.105 228.712 155.105 228.104V216.44C155.105 215.736 154.833 215.384 154.289 215.384C153.937 215.384 153.665 215.512 153.473 215.768V243.32C153.473 243.928 153.345 244.36 153.089 244.616C152.865 244.872 152.465 245 151.889 245H142.193C141.617 245 141.201 244.872 140.945 244.616C140.721 244.36 140.609 243.928 140.609 243.32V215.768ZM181.373 213.08C181.949 213.08 182.349 213.208 182.573 213.464C182.829 213.72 182.957 214.152 182.957 214.76V242.072C182.957 242.936 183.261 243.368 183.869 243.368C184.477 243.368 184.781 242.936 184.781 242.072V214.76C184.781 214.152 184.893 213.72 185.117 213.464C185.373 213.208 185.789 213.08 186.365 213.08H196.973C197.549 213.08 197.965 213.208 198.221 213.464C198.477 213.688 198.605 214.072 198.605 214.616V231.848C198.605 236.456 197.357 239.944 194.861 242.312C192.397 244.648 188.733 245.816 183.869 245.816C179.037 245.816 175.373 244.648 172.877 242.312C170.381 239.944 169.133 236.456 169.133 231.848V218.552C169.133 217.752 169.069 217.176 168.941 216.824C168.813 216.44 168.589 216.104 168.269 215.816C167.949 215.496 167.405 215.08 166.637 214.568C166.477 214.472 166.397 214.328 166.397 214.136V213.56C166.397 213.24 166.589 213.08 166.973 213.08H181.373ZM216.371 242.312C216.563 242.568 216.867 242.696 217.283 242.696C217.571 242.696 217.795 242.584 217.955 242.36C218.115 242.136 218.195 241.848 218.195 241.496V216.584C218.195 216.232 218.115 215.944 217.955 215.72C217.795 215.496 217.571 215.384 217.283 215.384C216.867 215.384 216.563 215.512 216.371 215.768V242.312ZM218.291 213.08C223.027 213.08 226.707 214.488 229.331 217.304C231.987 220.088 233.315 223.976 233.315 228.968C233.315 232.104 232.707 234.888 231.491 237.32C230.275 239.72 228.515 241.608 226.211 242.984C223.939 244.328 221.283 245 218.243 245H205.091C204.515 245 204.099 244.872 203.843 244.616C203.619 244.36 203.507 243.928 203.507 243.32V218.504C203.507 217.48 203.379 216.76 203.123 216.344C202.867 215.896 202.163 215.304 201.011 214.568C200.851 214.472 200.771 214.328 200.771 214.136V213.56C200.771 213.24 200.963 213.08 201.347 213.08H218.291ZM249.699 243.32C249.699 243.928 249.571 244.36 249.315 244.616C249.091 244.872 248.691 245 248.115 245H238.419C237.843 245 237.427 244.872 237.171 244.616C236.947 244.36 236.835 243.928 236.835 243.32V218.552C236.835 217.752 236.771 217.176 236.643 216.824C236.515 216.44 236.291 216.104 235.971 215.816C235.651 215.496 235.107 215.08 234.339 214.568C234.179 214.472 234.099 214.328 234.099 214.136V213.56C234.099 213.24 234.291 213.08 234.675 213.08H248.115C248.691 213.08 249.091 213.208 249.315 213.464C249.571 213.72 249.699 214.152 249.699 214.76V243.32ZM280.894 213.08C281.47 213.08 281.87 213.208 282.094 213.464C282.35 213.72 282.478 214.152 282.478 214.76V220.472C282.478 222.488 282.046 223.992 281.182 224.984C280.318 225.944 278.99 226.424 277.198 226.424H271.294C270.686 226.424 270.254 226.296 269.998 226.04C269.742 225.784 269.614 225.352 269.614 224.744V216.44C269.614 215.736 269.342 215.384 268.798 215.384C268.414 215.384 268.126 215.512 267.934 215.768V227.864H277.054C277.438 227.864 277.63 228.04 277.63 228.392V229.64C277.63 229.96 277.438 230.12 277.054 230.12H267.934V242.216C268.126 242.472 268.414 242.6 268.798 242.6C269.342 242.6 269.614 242.248 269.614 241.544V233.336C269.614 232.728 269.742 232.296 269.998 232.04C270.254 231.784 270.686 231.656 271.294 231.656H277.198C278.99 231.656 280.318 232.152 281.182 233.144C282.046 234.104 282.478 235.592 282.478 237.608V243.32C282.478 243.928 282.35 244.36 282.094 244.616C281.87 244.872 281.47 245 280.894 245H256.654C256.078 245 255.662 244.872 255.406 244.616C255.182 244.36 255.07 243.928 255.07 243.32V218.552C255.07 217.752 255.006 217.176 254.878 216.824C254.75 216.44 254.526 216.104 254.206 215.816C253.886 215.496 253.342 215.08 252.574 214.568C252.414 214.472 252.334 214.328 252.334 214.136V213.56C252.334 213.24 252.526 213.08 252.91 213.08H280.894ZM314.352 235.88C314.352 239.08 313.024 241.544 310.368 243.272C307.712 244.968 303.904 245.816 298.944 245.816C294.336 245.816 290.832 245.128 288.432 243.752C286.064 242.344 284.88 240.312 284.88 237.656C284.88 236.024 285.472 234.696 286.656 233.672C287.84 232.616 289.36 232.088 291.216 232.088C293.36 232.088 295.056 232.568 296.304 233.528C297.584 234.456 298.224 235.72 298.224 237.32C298.224 238.536 297.808 239.496 296.976 240.2C296.144 240.904 294.976 241.288 293.472 241.352C293.28 241.544 293.184 241.752 293.184 241.976C293.184 242.2 293.28 242.376 293.472 242.504C293.696 242.632 293.968 242.696 294.288 242.696C295.888 242.696 297.216 242.184 298.272 241.16C299.36 240.136 299.904 238.856 299.904 237.32C299.904 236.072 299.648 235.048 299.136 234.248C298.624 233.416 297.792 232.68 296.64 232.04C295.52 231.4 293.984 230.776 292.032 230.168C289.824 229.496 288.16 228.488 287.04 227.144C285.92 225.8 285.36 224.152 285.36 222.2C285.36 220.28 285.952 218.584 287.136 217.112C288.352 215.608 290.08 214.424 292.32 213.56C294.592 212.696 297.232 212.264 300.24 212.264C304.464 212.264 307.76 212.984 310.128 214.424C312.528 215.864 313.728 217.864 313.728 220.424C313.728 222.056 313.104 223.4 311.856 224.456C310.64 225.48 309.056 225.992 307.104 225.992C305.088 225.992 303.456 225.512 302.208 224.552C300.992 223.592 300.384 222.328 300.384 220.76C300.384 219.544 300.8 218.584 301.632 217.88C302.464 217.176 303.632 216.792 305.136 216.728C305.328 216.536 305.424 216.328 305.424 216.104C305.424 215.88 305.312 215.704 305.088 215.576C304.896 215.448 304.64 215.384 304.32 215.384C303.296 215.384 302.352 215.624 301.488 216.104C300.656 216.552 299.984 217.192 299.472 218.024C298.96 218.824 298.704 219.736 298.704 220.76C298.704 222.52 299.296 223.944 300.48 225.032C301.664 226.088 303.696 227.016 306.576 227.816C309.232 228.552 311.184 229.576 312.432 230.888C313.712 232.2 314.352 233.864 314.352 235.88ZM328.624 215.768C328.432 215.512 328.16 215.384 327.808 215.384C327.264 215.384 326.992 215.736 326.992 216.44V228.104C326.992 228.712 326.864 229.144 326.608 229.4C326.352 229.656 325.92 229.784 325.312 229.784H322.048C320.256 229.784 318.928 229.304 318.064 228.344C317.2 227.352 316.768 225.848 316.768 223.832V214.76C316.768 214.152 316.88 213.72 317.104 213.464C317.36 213.208 317.776 213.08 318.352 213.08H351.76C352.336 213.08 352.736 213.208 352.96 213.464C353.216 213.72 353.344 214.152 353.344 214.76V223.832C353.344 225.848 352.912 227.352 352.048 228.344C351.184 229.304 349.856 229.784 348.064 229.784H344.8C344.192 229.784 343.76 229.656 343.504 229.4C343.248 229.144 343.12 228.712 343.12 228.104V216.44C343.12 215.736 342.848 215.384 342.304 215.384C341.952 215.384 341.68 215.512 341.488 215.768V243.32C341.488 243.928 341.36 244.36 341.104 244.616C340.88 244.872 340.48 245 339.904 245H330.208C329.632 245 329.216 244.872 328.96 244.616C328.736 244.36 328.624 243.928 328.624 243.32V215.768ZM366.564 236.888H364.788L366.18 242.264C366.372 243 366.468 243.512 366.468 243.8C366.468 244.6 365.972 245 364.98 245H352.452C351.812 245 351.316 244.856 350.964 244.568C350.644 244.248 350.484 243.816 350.484 243.272C350.484 242.536 351.22 240.296 352.692 236.552C354.164 232.808 356.66 226.84 360.18 218.648C360.372 218.2 360.468 217.8 360.468 217.448C360.468 216.904 360.324 216.44 360.036 216.056C359.78 215.672 359.284 215.24 358.548 214.76C358.228 214.568 358.068 214.36 358.068 214.136V213.56C358.068 213.24 358.26 213.08 358.644 213.08H369.78C370.836 213.08 371.684 213.288 372.324 213.704C372.996 214.12 373.508 214.792 373.86 215.72L383.124 240.104C383.732 241.672 384.036 242.792 384.036 243.464C384.036 244.488 383.508 245 382.452 245H370.404C369.732 245 369.236 244.856 368.916 244.568C368.628 244.28 368.372 243.704 368.148 242.84L366.564 236.888ZM364.212 234.632H365.988L362.628 221.72C362.468 221.56 362.26 221.48 362.004 221.48C361.748 221.48 361.54 221.56 361.38 221.72C361.22 221.848 361.14 222.024 361.14 222.248C361.14 222.376 361.156 222.52 361.188 222.68C361.22 222.84 361.268 223.032 361.332 223.256L364.212 234.632ZM399.278 227.672H399.902C400.702 227.672 401.102 227.272 401.102 226.472V216.584C401.102 216.232 401.022 215.944 400.862 215.72C400.702 215.496 400.478 215.384 400.19 215.384C399.774 215.384 399.47 215.512 399.278 215.768V227.672ZM399.278 229.832V243.32C399.278 243.928 399.15 244.36 398.894 244.616C398.67 244.872 398.27 245 397.694 245H387.998C387.422 245 387.006 244.872 386.75 244.616C386.526 244.36 386.414 243.928 386.414 243.32V218.504C386.414 217.48 386.27 216.728 385.982 216.248C385.694 215.768 385.086 215.272 384.158 214.76C383.934 214.632 383.79 214.536 383.726 214.472C383.694 214.376 383.678 214.264 383.678 214.136V213.56C383.678 213.24 383.87 213.08 384.254 213.08H402.158C406.35 213.08 409.438 213.752 411.422 215.096C413.438 216.44 414.446 218.504 414.446 221.288C414.446 223.048 413.758 224.632 412.382 226.04C411.006 227.448 409.294 228.312 407.246 228.632C412.366 228.888 414.926 231.528 414.926 236.552V239.576C414.926 240.6 415.07 241.352 415.358 241.832C415.646 242.312 416.254 242.808 417.182 243.32C417.406 243.448 417.534 243.56 417.566 243.656C417.63 243.72 417.662 243.816 417.662 243.944V244.52C417.662 244.84 417.47 245 417.086 245H402.686C402.11 245 401.694 244.872 401.438 244.616C401.214 244.36 401.102 243.928 401.102 243.32V231.032C401.102 230.232 400.702 229.832 399.902 229.832H399.278ZM428.984 215.768C428.792 215.512 428.52 215.384 428.168 215.384C427.624 215.384 427.352 215.736 427.352 216.44V228.104C427.352 228.712 427.224 229.144 426.968 229.4C426.712 229.656 426.28 229.784 425.672 229.784H422.408C420.616 229.784 419.288 229.304 418.424 228.344C417.56 227.352 417.128 225.848 417.128 223.832V214.76C417.128 214.152 417.24 213.72 417.464 213.464C417.72 213.208 418.136 213.08 418.712 213.08H452.12C452.696 213.08 453.096 213.208 453.32 213.464C453.576 213.72 453.704 214.152 453.704 214.76V223.832C453.704 225.848 453.272 227.352 452.408 228.344C451.544 229.304 450.216 229.784 448.424 229.784H445.16C444.552 229.784 444.12 229.656 443.864 229.4C443.608 229.144 443.48 228.712 443.48 228.104V216.44C443.48 215.736 443.208 215.384 442.664 215.384C442.312 215.384 442.04 215.512 441.848 215.768V243.32C441.848 243.928 441.72 244.36 441.464 244.616C441.24 244.872 440.84 245 440.264 245H430.568C429.992 245 429.576 244.872 429.32 244.616C429.096 244.36 428.984 243.928 428.984 243.32V215.768ZM485.492 235.88C485.492 239.08 484.164 241.544 481.508 243.272C478.852 244.968 475.044 245.816 470.084 245.816C465.476 245.816 461.972 245.128 459.572 243.752C457.204 242.344 456.02 240.312 456.02 237.656C456.02 236.024 456.612 234.696 457.796 233.672C458.98 232.616 460.5 232.088 462.356 232.088C464.5 232.088 466.196 232.568 467.444 233.528C468.724 234.456 469.364 235.72 469.364 237.32C469.364 238.536 468.948 239.496 468.116 240.2C467.284 240.904 466.116 241.288 464.612 241.352C464.42 241.544 464.324 241.752 464.324 241.976C464.324 242.2 464.42 242.376 464.612 242.504C464.836 242.632 465.108 242.696 465.428 242.696C467.028 242.696 468.356 242.184 469.412 241.16C470.5 240.136 471.044 238.856 471.044 237.32C471.044 236.072 470.788 235.048 470.276 234.248C469.764 233.416 468.932 232.68 467.78 232.04C466.66 231.4 465.124 230.776 463.172 230.168C460.964 229.496 459.3 228.488 458.18 227.144C457.06 225.8 456.5 224.152 456.5 222.2C456.5 220.28 457.092 218.584 458.276 217.112C459.492 215.608 461.22 214.424 463.46 213.56C465.732 212.696 468.372 212.264 471.38 212.264C475.604 212.264 478.9 212.984 481.268 214.424C483.668 215.864 484.868 217.864 484.868 220.424C484.868 222.056 484.244 223.4 482.996 224.456C481.78 225.48 480.196 225.992 478.244 225.992C476.228 225.992 474.596 225.512 473.348 224.552C472.132 223.592 471.524 222.328 471.524 220.76C471.524 219.544 471.94 218.584 472.772 217.88C473.604 217.176 474.772 216.792 476.276 216.728C476.468 216.536 476.564 216.328 476.564 216.104C476.564 215.88 476.452 215.704 476.228 215.576C476.036 215.448 475.78 215.384 475.46 215.384C474.436 215.384 473.492 215.624 472.628 216.104C471.796 216.552 471.124 217.192 470.612 218.024C470.1 218.824 469.844 219.736 469.844 220.76C469.844 222.52 470.436 223.944 471.62 225.032C472.804 226.088 474.836 227.016 477.716 227.816C480.372 228.552 482.324 229.576 483.572 230.888C484.852 232.2 485.492 233.864 485.492 235.88ZM501.606 232.232C501.798 232.488 502.102 232.616 502.518 232.616C502.806 232.616 503.03 232.504 503.19 232.28C503.35 232.056 503.43 231.768 503.43 231.416V216.584C503.43 216.232 503.35 215.944 503.19 215.72C503.03 215.496 502.806 215.384 502.518 215.384C502.102 215.384 501.798 215.512 501.606 215.768V232.232ZM504.966 213.08C509.062 213.08 512.15 214.04 514.23 215.96C516.342 217.848 517.398 220.648 517.398 224.36C517.398 227.752 516.358 230.456 514.278 232.472C512.198 234.488 509.366 235.496 505.782 235.496C504.214 235.496 502.822 235.304 501.606 234.92V243.32C501.606 243.928 501.494 244.36 501.27 244.616C501.046 244.872 500.63 245 500.022 245H490.326C489.718 245 489.302 244.872 489.078 244.616C488.854 244.36 488.742 243.928 488.742 243.32V218.552C488.742 217.752 488.678 217.176 488.55 216.824C488.422 216.44 488.198 216.104 487.878 215.816C487.558 215.496 487.014 215.08 486.246 214.568C486.086 214.472 486.006 214.328 486.006 214.136V213.56C486.006 213.24 486.198 213.08 486.582 213.08H504.966ZM533.528 227.672H534.152C534.952 227.672 535.352 227.272 535.352 226.472V216.584C535.352 216.232 535.272 215.944 535.112 215.72C534.952 215.496 534.728 215.384 534.44 215.384C534.024 215.384 533.72 215.512 533.528 215.768V227.672ZM533.528 229.832V243.32C533.528 243.928 533.4 244.36 533.144 244.616C532.92 244.872 532.52 245 531.944 245H522.248C521.672 245 521.256 244.872 521 244.616C520.776 244.36 520.664 243.928 520.664 243.32V218.504C520.664 217.48 520.52 216.728 520.232 216.248C519.944 215.768 519.336 215.272 518.408 214.76C518.184 214.632 518.04 214.536 517.976 214.472C517.944 214.376 517.928 214.264 517.928 214.136V213.56C517.928 213.24 518.12 213.08 518.504 213.08H536.408C540.6 213.08 543.688 213.752 545.672 215.096C547.688 216.44 548.696 218.504 548.696 221.288C548.696 223.048 548.008 224.632 546.632 226.04C545.256 227.448 543.544 228.312 541.496 228.632C546.616 228.888 549.176 231.528 549.176 236.552V239.576C549.176 240.6 549.32 241.352 549.608 241.832C549.896 242.312 550.504 242.808 551.432 243.32C551.656 243.448 551.784 243.56 551.816 243.656C551.88 243.72 551.912 243.816 551.912 243.944V244.52C551.912 244.84 551.72 245 551.336 245H536.936C536.36 245 535.944 244.872 535.688 244.616C535.464 244.36 535.352 243.928 535.352 243.32V231.032C535.352 230.232 534.952 229.832 534.152 229.832H533.528ZM568.16 245.816C563.808 245.816 560.256 244.808 557.504 242.792L555.44 245.144C555.248 245.4 555.056 245.528 554.864 245.528C554.704 245.528 554.544 245.464 554.384 245.336L553.712 244.76C553.456 244.568 553.328 244.376 553.328 244.184C553.328 244.056 553.408 243.912 553.568 243.752L555.776 241.256C553.056 238.344 551.696 234.264 551.696 229.016C551.696 223.672 553.12 219.544 555.968 216.632C558.848 213.72 562.912 212.264 568.16 212.264C572.672 212.264 576.288 213.336 579.008 215.48L581.024 213.224C581.216 212.968 581.408 212.84 581.6 212.84C581.76 212.84 581.92 212.904 582.08 213.032L582.704 213.512C582.96 213.704 583.088 213.896 583.088 214.088C583.088 214.216 583.008 214.36 582.848 214.52L580.688 217.016C583.312 219.928 584.624 223.928 584.624 229.016C584.624 234.36 583.184 238.504 580.304 241.448C577.456 244.36 573.408 245.816 568.16 245.816ZM568.16 243.368C568.768 243.368 569.072 242.936 569.072 242.072V229.448L567.248 232.904V242.072C567.248 242.936 567.552 243.368 568.16 243.368ZM567.248 228.44L569.072 225.032V216.008C569.072 215.144 568.768 214.712 568.16 214.712C567.552 214.712 567.248 215.144 567.248 216.008V228.44ZM593.688 213.08C595.896 213.08 597.592 213.56 598.776 214.52C599.96 215.48 600.84 217.08 601.416 219.32L606.648 239.24C606.808 239.4 607.048 239.48 607.368 239.48C607.56 239.48 607.736 239.416 607.896 239.288C608.056 239.128 608.136 238.936 608.136 238.712C608.136 238.456 608.072 238.12 607.944 237.704L603.048 218.6C602.888 218.024 602.664 217.4 602.376 216.728C602.088 216.056 601.8 215.528 601.512 215.144C601.224 214.76 601.048 214.504 600.984 214.376C600.92 214.248 600.888 214.088 600.888 213.896V213.56C600.888 213.24 601.096 213.08 601.512 213.08H617.016C617.656 213.08 618.136 213.24 618.456 213.56C618.808 213.848 618.984 214.264 618.984 214.808C618.984 215.992 618.024 219.448 616.104 225.176C614.216 230.872 612.104 236.6 609.768 242.36C609.416 243.288 608.904 243.96 608.232 244.376C607.592 244.792 606.744 245 605.688 245H598.728C597.672 245 596.808 244.792 596.136 244.376C595.496 243.96 595 243.288 594.648 242.36L585.048 217.064C584.856 216.552 584.584 216.136 584.232 215.816C583.912 215.464 583.352 215.048 582.552 214.568C582.392 214.472 582.312 214.328 582.312 214.136V213.56C582.312 213.24 582.504 213.08 582.888 213.08H593.688ZM649.144 213.08C649.72 213.08 650.12 213.208 650.344 213.464C650.6 213.72 650.728 214.152 650.728 214.76V220.472C650.728 222.488 650.296 223.992 649.432 224.984C648.568 225.944 647.24 226.424 645.448 226.424H639.544C638.936 226.424 638.504 226.296 638.248 226.04C637.992 225.784 637.864 225.352 637.864 224.744V216.44C637.864 215.736 637.592 215.384 637.048 215.384C636.664 215.384 636.376 215.512 636.184 215.768V227.864H645.304C645.688 227.864 645.88 228.04 645.88 228.392V229.64C645.88 229.96 645.688 230.12 645.304 230.12H636.184V242.216C636.376 242.472 636.664 242.6 637.048 242.6C637.592 242.6 637.864 242.248 637.864 241.544V233.336C637.864 232.728 637.992 232.296 638.248 232.04C638.504 231.784 638.936 231.656 639.544 231.656H645.448C647.24 231.656 648.568 232.152 649.432 233.144C650.296 234.104 650.728 235.592 650.728 237.608V243.32C650.728 243.928 650.6 244.36 650.344 244.616C650.12 244.872 649.72 245 649.144 245H624.904C624.328 245 623.912 244.872 623.656 244.616C623.432 244.36 623.32 243.928 623.32 243.32V218.552C623.32 217.752 623.256 217.176 623.128 216.824C623 216.44 622.776 216.104 622.456 215.816C622.136 215.496 621.592 215.08 620.824 214.568C620.664 214.472 620.584 214.328 620.584 214.136V213.56C620.584 213.24 620.776 213.08 621.16 213.08H649.144Z" fill="#748F8C"/>
</svg>
